<svg
  data-name="Logo_text"
  xmlns="http://www.w3.org/2000/svg"
  viewBox="0 0 179.298 54"
>
  <g data-name="Logo_text_icon">
    <path
      data-name="logo_text_icon_path"
      d="M29.085,52.2V45.657L44.693,35.239a2.749,2.749,0,0,0,1.187-2.271V8.345L57.924.287A1.661,1.661,0,0,1,60.469,1.8V32.968a2.643,2.643,0,0,1-1.188,2.271L31.672,53.716A1.644,1.644,0,0,1,30.76,54,1.727,1.727,0,0,1,29.085,52.2ZM0,52.2V21.035a2.644,2.644,0,0,1,1.187-2.271L28.8.287A1.69,1.69,0,0,1,31.382,1.8V8.325L43.258.277a1.7,1.7,0,0,1,2.6,1.512V8.327L31.38,18.113V8.347L15.819,18.765a2.747,2.747,0,0,0-1.188,2.271v24.61l14.445-9.758v9.782L17.2,53.716a1.66,1.66,0,0,1-2.56-1.511V45.669h-.024L2.587,53.716A1.647,1.647,0,0,1,1.674,54,1.726,1.726,0,0,1,0,52.2Z"
      transform="translate(0 0)"
    />
  </g>
  <path
    data-name="Logo_text_text"
    d="M67.893,45a4.515,4.515,0,0,1-3.556-1.44,4.737,4.737,0,0,1-1.065-3.107,4.652,4.652,0,0,1,1.19-3.216,4.517,4.517,0,0,1,3.4-1.347,4.368,4.368,0,0,1,3.482,1.446,4.8,4.8,0,0,1,1.04,3.1c0,.188,0,.336-.016.572H65.591a2.218,2.218,0,0,0,2.335,2.19,2.038,2.038,0,0,0,2.022-1.027h2.319C71.833,43.463,70.721,45,67.893,45Zm-.033-7.409a2.024,2.024,0,0,0-2.236,1.92h4.39A1.947,1.947,0,0,0,67.86,37.591ZM35.677,45c-2.4,0-3.256-1.515-3.256-2.812,0-1.938,1.447-2.88,4.425-2.88H38.7v-.32c0-.988-.554-1.449-1.743-1.449-1.3,0-1.6.542-1.728,1.129H32.9c.063-.836.584-2.778,4.03-2.778a4.5,4.5,0,0,1,3.324,1.023,2.9,2.9,0,0,1,.721,2.109v3.4c0,1.033.049,2.157.066,2.341H38.851a5.636,5.636,0,0,1-.1-1.061C38.251,44.564,37.216,45,35.677,45Zm1.2-4.142c-1.513,0-2.187.374-2.187,1.212,0,.749.6,1.2,1.611,1.2,1.984,0,2.4-1.191,2.4-2.19v-.219Zm9.342,3.973c-1.846,0-2.565-.722-2.565-2.576V37.877H42.091V36.125h1.563V33.5h2.335v2.627h2.039v1.752H45.989v3.991c0,.793.16,1.2,1.035,1.2A3.959,3.959,0,0,0,47.781,43v1.651A5.038,5.038,0,0,1,46.219,44.831ZM25,44.831c-1.846,0-2.565-.722-2.565-2.576V37.877H20.871V36.125h1.562V33.5h2.335v2.627h2.04v1.752h-2.04v3.991c0,.793.16,1.2,1.037,1.2A3.959,3.959,0,0,0,26.562,43v1.651A5.044,5.044,0,0,1,25,44.831ZM8.621,44.766h0l-2.334,0V38.3c0-.726,0-1.55-.016-2.174H8.539c.027.209.043.645.057,1.029l.009.235a3.046,3.046,0,0,1,2.878-1.5c2.07,0,3.306,1.334,3.306,3.569v5.3H12.437V39.847c0-.952-.3-2.087-1.744-2.087-1.355,0-2.072.949-2.072,2.745v4.262Zm50.61,0H56.649L53.1,36.125h2.516c.461,1.289.924,2.512,1.332,3.59.506,1.336.9,2.391,1.069,2.961h.033c.294-1.028.918-2.742,2.384-6.552H62.8l-3.567,8.639Zm-7.367,0H49.529v-8.64h2.335v8.639Zm-21.219,0H28.309v-8.64h2.335v8.639Zm-11.25,0H17.058v-8.64h2.336v8.639Zm-15.448,0H1.512V32.875H3.946V44.763ZM51.864,34.29H49.529V32.184h2.335v2.1Zm-21.219,0H28.309V32.184h2.335v2.1Zm-11.25,0H17.058V32.184h2.336v2.1Zm77.121-1.913a7.309,7.309,0,0,1-1.25-.1V30.322a5.963,5.963,0,0,0,.872.05c1.159,0,1.475-.429,2.022-1.566l-3.815-8.992h2.549c1.494,3.737,2.274,6,2.5,6.753h.033c.182-.633.889-2.993,2.269-6.753h2.368l-2.977,7.663C99.593,31.361,99.1,32.377,96.515,32.377ZM77.854,28.689a4.267,4.267,0,0,1-4.621-4.564,4.6,4.6,0,0,1,1.195-3.163,5.072,5.072,0,0,1,6.736-.2,3.454,3.454,0,0,1,1.016,1.952H79.844a1.889,1.889,0,0,0-1.973-1.331c-1.411,0-2.254,1.02-2.254,2.728s.857,2.762,2.236,2.762a1.988,1.988,0,0,0,2.04-1.264h2.335C81.772,27.537,80.136,28.689,77.854,28.689Zm-31.847,0a4.515,4.515,0,0,1-3.556-1.44,4.737,4.737,0,0,1-1.065-3.107,4.654,4.654,0,0,1,1.19-3.217,4.516,4.516,0,0,1,3.4-1.348,4.368,4.368,0,0,1,3.482,1.446,4.8,4.8,0,0,1,1.04,3.1c0,.189,0,.338-.016.574H43.7a2.217,2.217,0,0,0,2.335,2.188,2.037,2.037,0,0,0,2.022-1.027h2.319C49.946,27.151,48.833,28.689,46.007,28.689Zm-.033-7.41a2.024,2.024,0,0,0-2.236,1.92h4.39A1.947,1.947,0,0,0,45.974,21.279ZM17.04,28.689c-2.007,0-3.158-1.3-3.158-3.569V19.814H16.2v4.9c0,1.366.58,2.088,1.677,2.088,1.449,0,2.04-.878,2.04-3.031V19.814h2.335v6.113c0,.281,0,.562,0,.843,0,.552-.007,1.122,0,1.683H19.984c-.023-.164-.03-.449-.038-.75,0-.136-.007-.274-.012-.411C19.533,28.018,18.9,28.689,17.04,28.689Zm74.773-.169c-1.846,0-2.565-.722-2.565-2.576V21.565H87.686V19.814h1.562V17.187h2.336v2.627h2.039v1.751H91.584v3.992c0,.792.16,1.195,1.035,1.195a3.9,3.9,0,0,0,.757-.067v1.651A5.028,5.028,0,0,1,91.814,28.52Zm-25.9,0c-1.846,0-2.565-.722-2.565-2.576V21.565H61.78V19.814h1.563V17.187h2.335v2.627h2.039v1.751H65.678v3.992c0,.792.16,1.195,1.037,1.195a3.8,3.8,0,0,0,.756-.067v1.651A5.022,5.022,0,0,1,65.909,28.52Zm-38.016,0c-1.846,0-2.565-.722-2.565-2.576V21.565H23.766V19.814h1.562V17.187h2.336v2.627H29.7v1.751H27.664v3.992c0,.792.16,1.195,1.035,1.195a3.9,3.9,0,0,0,.757-.067v1.651A5.028,5.028,0,0,1,27.893,28.52Zm26.581-.066H52.139V21.986c0-.726,0-1.548-.016-2.172h2.269c.027.208.043.644.057,1.028l.009.236a3.047,3.047,0,0,1,2.878-1.5c2.07,0,3.306,1.335,3.306,3.571v5.3l-2.352,0V23.536c0-.953-.3-2.088-1.744-2.088-1.355,0-2.072.949-2.072,2.745v4.261Zm-20.951,0H31.2V15.873h2.3v5.17a3.139,3.139,0,0,1,2.911-1.466c2.111,0,3.273,1.3,3.273,3.672v5.2l-2.352,0V23.536c0-1.425-.533-2.088-1.678-2.088-1.358,0-2.138,1.031-2.138,2.83v4.176Zm-31.007,0H0L4.785,16.563H7.861L12.876,28.45l-2.647,0L9,25.456H3.684l-1.168,3ZM6.233,18.214c-.265.9-.99,2.9-1.892,5.22H8.289c-1.238-3.045-1.769-4.37-2.04-5.22H6.233ZM86.209,28.453H83.874V19.814h2.335v8.639Zm-14.656,0H69.218V19.814h2.335v8.639ZM86.209,17.978H83.873v-2.1h2.336v2.1Zm-14.656,0H69.218v-2.1h2.335v2.1ZM6.874,12.394a5.914,5.914,0,0,1-4.559-1.852A6.435,6.435,0,0,1,.788,6.214,6.343,6.343,0,0,1,2.4,1.869,6.075,6.075,0,0,1,7.005,0c3.552,0,5.209,2.036,5.575,3.941H10.114a3,3,0,0,0-3.141-1.97c-2.2,0-3.617,1.626-3.617,4.142,0,2.629,1.426,4.328,3.634,4.328A2.909,2.909,0,0,0,10.1,8.454h2.467C11.633,11.711,8.955,12.394,6.874,12.394Zm39.165-.016a4.515,4.515,0,0,1-3.556-1.44,4.737,4.737,0,0,1-1.065-3.107,4.654,4.654,0,0,1,1.19-3.217,4.516,4.516,0,0,1,3.4-1.347,4.37,4.37,0,0,1,3.483,1.446,4.8,4.8,0,0,1,1.041,3.1c0,.189,0,.338-.016.572H43.736a2.218,2.218,0,0,0,2.335,2.19A2.042,2.042,0,0,0,48.1,9.549h2.319C49.978,10.84,48.865,12.378,46.038,12.378Zm-.033-7.41a2.024,2.024,0,0,0-2.236,1.92h4.39A1.944,1.944,0,0,0,46.005,4.968Zm-27.5,7.41a4.61,4.61,0,0,1-3.482-1.385,4.623,4.623,0,0,1-1.188-3.179,4.532,4.532,0,0,1,1.225-3.177,4.777,4.777,0,0,1,3.544-1.37A4.612,4.612,0,0,1,22.149,4.72,4.661,4.661,0,0,1,23.31,7.814a4.487,4.487,0,0,1-1.241,3.249A4.879,4.879,0,0,1,18.508,12.378Zm.049-7.293c-1.724,0-2.335,1.47-2.335,2.728a2.467,2.467,0,0,0,2.352,2.728c1.129,0,2.335-.708,2.335-2.695C20.909,6.473,20.182,5.085,18.558,5.085ZM65.94,12.209c-1.846,0-2.565-.723-2.565-2.577V5.254H61.813V3.5h1.562V.876H65.71V3.5h2.04V5.254H65.71V9.246c0,.792.16,1.195,1.037,1.195a3.9,3.9,0,0,0,.757-.068v1.651A5.028,5.028,0,0,1,65.94,12.209Zm-27.162,0c-1.846,0-2.565-.723-2.565-2.577V5.254H34.65V3.5h1.563V.876h2.335V3.5h2.039V5.254H38.548V9.246c0,.792.16,1.195,1.037,1.195a3.8,3.8,0,0,0,.756-.068v1.651A5.022,5.022,0,0,1,38.779,12.209Zm15.727-.066H52.17V5.675c0-.726,0-1.55-.016-2.172h2.269c.027.208.043.643.057,1.027l.009.235a3.046,3.046,0,0,1,2.878-1.5c2.07,0,3.306,1.335,3.306,3.571v5.3l-2.352,0V7.224c0-.952-.3-2.087-1.743-2.087-1.356,0-2.073.949-2.073,2.745v4.261Zm-27.162,0H25.009V5.675c0-.726,0-1.55-.016-2.172h2.269c.027.208.043.643.057,1.027l.009.235a3.046,3.046,0,0,1,2.878-1.5c2.07,0,3.306,1.335,3.306,3.571v5.3l-2.353,0V7.224c0-.952-.3-2.087-1.743-2.087-1.355,0-2.072.949-2.072,2.745v4.261Z"
    transform="translate(75.234 4.5)"
  />
</svg>
